<svg width="29" height="28" viewBox="0 0 29 28" fill="none" xmlns="http://www.w3.org/2000/svg">
<g clipPath="url(#clip0_662_6263)">
<path d="M5.13542 2.24395e-06H23.8646C24.5392 -0.000623763 25.2072 0.129737 25.8306 0.383624C26.4539 0.63751 27.0203 1.00994 27.4973 1.47959C27.9743 1.94925 28.3525 2.50691 28.6104 3.12067C28.8682 3.73442 29.0006 4.39222 29 5.05641V22.7836C29.0006 23.4478 28.8682 24.1056 28.6104 24.7193C28.3525 25.3331 27.9743 25.8908 27.4973 26.3604C27.0203 26.8301 26.4539 27.2025 25.8306 27.4564C25.2072 27.7103 24.5392 27.8406 23.8646 27.84H5.13542C4.46085 27.8406 3.79277 27.7103 3.16943 27.4564C2.54608 27.2025 1.97971 26.8301 1.50271 26.3604C1.02572 25.8908 0.647471 25.3331 0.389618 24.7193C0.131764 24.1056 -0.00063351 23.4478 2.27901e-06 22.7836V5.05641C-0.00063351 4.39222 0.131764 3.73442 0.389618 3.12067C0.647471 2.50691 1.02572 1.94925 1.50271 1.47959C1.97971 1.00994 2.54608 0.63751 3.16943 0.383624C3.79277 0.129737 4.46085 -0.000623763 5.13542 2.24395e-06Z" fill="#00005B"/>
<path d="M11.6484 16.6563H7.15338L6.23505 19.4641C6.22479 19.515 6.19555 19.5604 6.15307 19.5912C6.11059 19.622 6.05794 19.6361 6.00547 19.6306H3.7338C3.60088 19.6306 3.56463 19.5592 3.60088 19.4165L7.49172 8.43514C7.52797 8.31616 7.56422 8.20908 7.61255 8.06631C7.66118 7.81133 7.68545 7.55242 7.68505 7.29298C7.68143 7.26318 7.68938 7.23314 7.70731 7.20887C7.72523 7.1846 7.75181 7.1679 7.78172 7.16211H10.9113C10.9959 7.16211 11.0563 7.1978 11.0684 7.25729L15.4788 19.4522C15.5151 19.583 15.4788 19.6425 15.358 19.6425H12.8326C12.7898 19.6466 12.747 19.6357 12.7117 19.6117C12.6763 19.5878 12.6507 19.5524 12.6392 19.5116L11.6484 16.6563ZM7.85422 14.2887H10.9234C10.8509 14.0388 10.7542 13.7414 10.6455 13.4321C10.5367 13.1227 10.428 12.7658 10.3192 12.4089C10.2105 12.052 10.0896 11.6831 9.9688 11.3143C9.84797 10.9455 9.73922 10.6005 9.64255 10.2554C9.54588 9.91042 9.4613 9.61298 9.37672 9.32744H9.35255C9.24396 9.84599 9.10681 10.3583 8.94172 10.8622C8.76047 11.4333 8.57922 12.0282 8.38588 12.623C8.2288 13.2298 8.03547 13.789 7.85422 14.2887Z" fill="#9999FF"/>
<path d="M22.6442 15.5612H18.8138C18.8595 15.9366 18.9873 16.2979 19.1884 16.62C19.4019 16.9407 19.7096 17.1897 20.0705 17.3339C20.5589 17.5395 21.086 17.6409 21.6172 17.6313C22.0391 17.6237 22.4596 17.5799 22.8738 17.5004C23.2423 17.4529 23.6035 17.361 23.9492 17.2268C24.0097 17.1792 24.0459 17.203 24.0459 17.322V19.1423C24.0438 19.1907 24.0357 19.2386 24.0217 19.2851C23.9999 19.3184 23.9711 19.3468 23.9372 19.3683C23.5507 19.5354 23.1449 19.6553 22.7288 19.7253C22.1636 19.8323 21.5884 19.8801 21.013 19.868C20.0947 19.868 19.3213 19.7253 18.693 19.4516C18.1017 19.1989 17.5799 18.8116 17.1705 18.3214C16.7879 17.863 16.5042 17.3327 16.3367 16.7628C15.9827 15.5759 15.9995 14.3115 16.3851 13.1341C16.5778 12.5384 16.8855 11.9849 17.2913 11.5041C17.6909 11.0287 18.1895 10.6433 18.7534 10.3739C19.3213 10.1002 19.998 10.0051 20.7713 10.0051C21.4156 9.99034 22.0553 10.1163 22.6442 10.3739C23.1393 10.5852 23.5747 10.9118 23.913 11.3257C24.2342 11.732 24.4796 12.1912 24.638 12.682C24.7917 13.1509 24.8691 13.6408 24.8676 14.1335C24.8676 14.419 24.8555 14.6689 24.8434 14.8949C24.8313 15.121 24.8072 15.2875 24.7951 15.3946C24.7898 15.4358 24.7699 15.4739 24.739 15.5021C24.7081 15.5304 24.668 15.5471 24.6259 15.5493C24.5534 15.5493 24.4205 15.5612 24.2272 15.5731C23.9945 15.5991 23.7605 15.611 23.5263 15.6088C23.2484 15.6088 22.9584 15.5612 22.6442 15.5612ZM18.8138 13.8241H21.3634C21.6776 13.8241 21.9072 13.8241 22.0522 13.8122C22.1515 13.8041 22.2471 13.7714 22.3301 13.7171V13.5981C22.3306 13.4484 22.3061 13.2997 22.2576 13.1579C22.1518 12.8323 21.9414 12.5495 21.658 12.3521C21.3746 12.1546 21.0337 12.0533 20.6867 12.0633C20.3588 12.0452 20.0326 12.121 19.7474 12.2814C19.4622 12.4419 19.2303 12.6802 19.0797 12.9675C18.9387 13.2347 18.8486 13.525 18.8138 13.8241Z" fill="#9999FF"/>
</g>
<defs>
<clipPath id="clip0_662_6263">
<rect width="29" height="27.84" fill="white"/>
</clipPath>
</defs>
</svg>
