<svg width="30" height="29" viewBox="0 0 30 29" fill="none" xmlns="http://www.w3.org/2000/svg">
<g clip-path="url(#clip0_662_6271)">
<path d="M5.3125 2.33744e-06H24.6875C25.3853 -0.000649753 26.0764 0.135143 26.7213 0.399608C27.3661 0.664073 27.952 1.05202 28.4455 1.54124C28.9389 2.03047 29.3302 2.61137 29.597 3.2507C29.8637 3.89002 30.0007 4.57523 30 5.2671V23.7329C30.0007 24.4248 29.8637 25.11 29.597 25.7493C29.3302 26.3886 28.9389 26.9695 28.4455 27.4588C27.952 27.948 27.3661 28.3359 26.7213 28.6004C26.0764 28.8649 25.3853 29.0007 24.6875 29H5.3125C4.61467 29.0007 3.92356 28.8649 3.27872 28.6004C2.63388 28.3359 2.04797 27.948 1.55453 27.4588C1.06109 26.9695 0.669798 26.3886 0.403053 25.7493C0.136308 25.11 -0.000655355 24.4248 2.35759e-06 23.7329V5.2671C-0.000655355 4.57523 0.136308 3.89002 0.403053 3.2507C0.669798 2.61137 1.06109 2.03047 1.55453 1.54124C2.04797 1.05202 2.63388 0.664073 3.27872 0.399608C3.92356 0.135143 4.61467 -0.000649753 5.3125 2.33744e-06Z" fill="black"/>
<path d="M15.7499 20.4979H7.82494C7.68744 20.4979 7.62494 20.4235 7.62494 20.2748V7.60898C7.62215 7.58859 7.62352 7.56785 7.62897 7.54799C7.63442 7.52813 7.64383 7.50956 7.65666 7.49338C7.66948 7.4772 7.68545 7.46373 7.70362 7.45379C7.7218 7.44384 7.7418 7.43761 7.76244 7.43548H10.2624C10.2781 7.43265 10.2941 7.43301 10.3096 7.43651C10.3251 7.44002 10.3397 7.44661 10.3526 7.45588C10.3654 7.46514 10.3763 7.4769 10.3844 7.49044C10.3925 7.50397 10.3978 7.519 10.3999 7.53462V17.9821H16.1749C16.2999 17.9821 16.3374 18.044 16.3124 18.1556L15.9499 20.312C15.948 20.3404 15.9404 20.3683 15.9275 20.3938C15.9146 20.4193 15.8967 20.4421 15.8749 20.4607C15.8383 20.4859 15.7945 20.4989 15.7499 20.4979Z" fill="#31A8FF"/>
<path d="M17.7499 10.5825H19.9374C19.9967 10.5839 20.0539 10.6039 20.1011 10.6395C20.1482 10.6751 20.1828 10.7245 20.1999 10.7808C20.2516 10.8685 20.2856 10.9653 20.2999 11.0658C20.3249 11.1898 20.3499 11.3261 20.3624 11.45C20.3749 11.574 20.3874 11.7351 20.3874 11.8962C20.7627 11.4618 21.2163 11.1003 21.7249 10.8304C22.296 10.5234 22.938 10.3697 23.5874 10.3842C23.608 10.3814 23.6289 10.3828 23.6489 10.3882C23.669 10.3936 23.6877 10.4029 23.704 10.4156C23.7203 10.4284 23.7339 10.4442 23.7439 10.4622C23.754 10.4802 23.7603 10.5001 23.7624 10.5205V12.9868C23.7624 13.0859 23.6999 13.1231 23.5624 13.1231C22.7523 13.075 21.9423 13.2195 21.1999 13.5445C20.9467 13.6519 20.7173 13.8077 20.5249 14.003V20.3235C20.5249 20.4475 20.4749 20.497 20.3624 20.497H17.9249C17.9019 20.5009 17.8782 20.5 17.8555 20.4946C17.8328 20.4891 17.8114 20.4791 17.7927 20.4652C17.774 20.4513 17.7584 20.4338 17.7467 20.4137C17.7351 20.3936 17.7276 20.3713 17.7249 20.3483V13.4329C17.7249 13.1355 17.7249 12.8257 17.7124 12.5034C17.6999 12.1812 17.6999 11.859 17.6874 11.5368C17.6749 11.2641 17.6499 10.9915 17.6124 10.7188C17.6091 10.7042 17.6087 10.689 17.6113 10.6742C17.6139 10.6594 17.6195 10.6453 17.6276 10.6326C17.6357 10.62 17.6463 10.609 17.6587 10.6004C17.6711 10.5918 17.6851 10.5857 17.6999 10.5825C17.7124 10.5701 17.7249 10.5701 17.7499 10.5825Z" fill="#31A8FF"/>
</g>
<defs>
<clipPath id="clip0_662_6271">
<rect width="30" height="29" fill="white"/>
</clipPath>
</defs>
</svg>
