<svg width="30" height="29" viewBox="0 0 30 29" fill="none" xmlns="http://www.w3.org/2000/svg">
<g clipPath="url(#clip0_662_6267)">
<path d="M5.3125 2.33744e-06H24.6875C25.3853 -0.000649753 26.0764 0.135143 26.7213 0.399608C27.3661 0.664073 27.952 1.05202 28.4455 1.54124C28.9389 2.03047 29.3302 2.61137 29.597 3.2507C29.8637 3.89002 30.0007 4.57523 30 5.2671V23.7329C30.0007 24.4248 29.8637 25.11 29.597 25.7493C29.3302 26.3886 28.9389 26.9695 28.4455 27.4588C27.952 27.948 27.3661 28.3359 26.7213 28.6004C26.0764 28.8649 25.3853 29.0007 24.6875 29H5.3125C4.61467 29.0007 3.92356 28.8649 3.27872 28.6004C2.63388 28.3359 2.04797 27.948 1.55453 27.4588C1.06109 26.9695 0.669798 26.3886 0.403053 25.7493C0.136308 25.11 -0.000655355 24.4248 2.35759e-06 23.7329V5.2671C-0.000655355 4.57523 0.136308 3.89002 0.403053 3.2507C0.669798 2.61137 1.06109 2.03047 1.55453 1.54124C2.04797 1.05202 2.63388 0.664073 3.27872 0.399608C3.92356 0.135143 4.61467 -0.000649753 5.3125 2.33744e-06Z" fill="black"/>
<path d="M6.75 20.3363V7.58373C6.75 7.49698 6.7875 7.44741 6.875 7.44741C7.0875 7.44741 7.2875 7.44741 7.575 7.43501C7.8625 7.42262 8.1875 7.42262 8.525 7.41023C8.8625 7.39783 9.225 7.39783 9.6125 7.38544C10 7.37305 10.375 7.37305 10.75 7.37305C11.775 7.37305 12.625 7.49698 13.325 7.75723C13.9525 7.96851 14.5247 8.31565 15 8.77347C15.4028 9.17412 15.714 9.65595 15.9125 10.1863C16.1017 10.7028 16.199 11.2479 16.2 11.7974C16.2 12.8632 15.95 13.7431 15.45 14.4371C14.9477 15.1302 14.2464 15.6571 13.4375 15.9491C12.5875 16.2589 11.65 16.3705 10.625 16.3705C10.325 16.3705 10.125 16.3705 10 16.3581C9.875 16.3457 9.7 16.3457 9.4625 16.3457V20.3239C9.46529 20.3443 9.46392 20.365 9.45847 20.3849C9.45303 20.4048 9.44361 20.4233 9.43079 20.4395C9.41796 20.4557 9.40199 20.4691 9.38382 20.4791C9.36565 20.489 9.34564 20.4953 9.325 20.4974H6.9C6.8 20.4974 6.75 20.4478 6.75 20.3363ZM9.475 9.83929V14.0034C9.65 14.0158 9.8125 14.0282 9.9625 14.0282H10.625C11.113 14.0288 11.598 13.9535 12.0625 13.8051C12.461 13.6889 12.817 13.4608 13.0875 13.1483C13.35 12.8384 13.475 12.4171 13.475 11.8718C13.4868 11.4845 13.387 11.1019 13.1875 10.7688C12.9791 10.447 12.6725 10.1995 12.3125 10.0624C11.8432 9.88014 11.3411 9.79576 10.8375 9.8145C10.5125 9.8145 10.225 9.8145 9.9875 9.82689C9.81664 9.81582 9.64512 9.81997 9.475 9.83929Z" fill="#31A8FF"/>
<path d="M24 13.2462C23.6226 13.0491 23.2184 12.9072 22.8 12.8248C22.3405 12.7216 21.8711 12.6676 21.4 12.6637C21.147 12.655 20.8942 12.6843 20.65 12.7504C20.4943 12.7826 20.3562 12.8709 20.2625 12.9983C20.1993 13.0989 20.1648 13.2145 20.1625 13.3329C20.1683 13.4508 20.2121 13.5638 20.2875 13.6551C20.406 13.7929 20.5503 13.9066 20.7125 13.9898C21 14.1385 21.3 14.2748 21.6 14.3987C22.2753 14.6241 22.9215 14.9278 23.525 15.3034C23.9355 15.5593 24.275 15.9129 24.5125 16.3321C24.7134 16.7274 24.8122 17.166 24.8 17.6086C24.8101 18.1943 24.6401 18.7693 24.3125 19.2568C23.9638 19.7516 23.4774 20.1349 22.9125 20.3598C22.3 20.6201 21.55 20.7564 20.65 20.7564C20.0794 20.7587 19.5099 20.7047 18.95 20.5953C18.5091 20.5198 18.0804 20.3864 17.675 20.1987C17.6314 20.1771 17.5952 20.1432 17.5708 20.1014C17.5463 20.0595 17.5348 20.0115 17.5375 19.9633V17.8068C17.5364 17.7857 17.5404 17.7645 17.5491 17.7452C17.5578 17.7258 17.5709 17.7087 17.5875 17.6953C17.6051 17.6851 17.6256 17.6809 17.6458 17.6831C17.6661 17.6853 17.6851 17.6939 17.7 17.7077C18.1815 17.9891 18.7045 18.194 19.25 18.315C19.7316 18.4392 20.2273 18.5017 20.725 18.5009C21.2 18.5009 21.5375 18.4389 21.7625 18.3274C21.8629 18.2814 21.9479 18.208 22.0077 18.1158C22.0675 18.0236 22.0995 17.9164 22.1 17.8068C22.1 17.6333 22 17.4722 21.8 17.3111C21.6 17.15 21.1875 16.9641 20.575 16.7286C19.9467 16.5091 19.3499 16.2092 18.8 15.8363C18.4083 15.5596 18.0838 15.1997 17.85 14.7829C17.6505 14.3915 17.5518 13.9572 17.5625 13.5188C17.5643 12.99 17.7113 12.4716 17.9875 12.0192C18.305 11.5217 18.7608 11.1258 19.3 10.8791C19.8875 10.5816 20.625 10.4453 21.5125 10.4453C22.0312 10.4455 22.5492 10.4827 23.0625 10.5569C23.4316 10.6064 23.7928 10.7021 24.1375 10.8419C24.1924 10.8612 24.2374 10.9013 24.2625 10.9534C24.2769 11.0018 24.2853 11.0518 24.2875 11.1021V13.1222C24.2877 13.1463 24.2821 13.1701 24.2713 13.1916C24.2604 13.2132 24.2446 13.2319 24.225 13.2462C24.1523 13.2721 24.0727 13.2721 24 13.2462Z" fill="#31A8FF"/>
</g>
<defs>
<clipPath id="clip0_662_6267">
<rect width="30" height="29" fill="white"/>
</clipPath>
</defs>
</svg>
