<svg width="29" height="29" viewBox="0 0 29 29" fill="none" xmlns="http://www.w3.org/2000/svg">
<g clipPath="url(#clip0_662_6279)">
<path d="M5.13542 2.27901e-06H23.8646C24.5392 -0.00063351 25.2072 0.131764 25.8306 0.389618C26.4539 0.647471 27.0203 1.02572 27.4973 1.50271C27.9743 1.97971 28.3525 2.54608 28.6104 3.16943C28.8682 3.79277 29.0006 4.46085 29 5.13542V23.1396C29.0006 23.8142 28.8682 24.4822 28.6104 25.1056C28.3525 25.7289 27.9743 26.2953 27.4973 26.7723C27.0203 27.2493 26.4539 27.6275 25.8306 27.8854C25.2072 28.1432 24.5392 28.2756 23.8646 28.275H5.13542C4.46085 28.2756 3.79277 28.1432 3.16943 27.8854C2.54608 27.6275 1.97971 27.2493 1.50271 26.7723C1.02572 26.2953 0.647471 25.7289 0.389618 25.1056C0.131764 24.4822 -0.00063351 23.8142 2.27901e-06 23.1396V5.13542C-0.00063351 4.46085 0.131764 3.79277 0.389618 3.16943C0.647471 2.54608 1.02572 1.97971 1.50271 1.50271C1.97971 1.02572 2.54608 0.647471 3.16943 0.389618C3.79277 0.131764 4.46085 -0.00063351 5.13542 2.27901e-06Z" fill="#470137"/>
<path d="M15.2492 7.43198L11.6242 13.4132L15.4909 19.757C15.5163 19.8008 15.5249 19.8523 15.515 19.902C15.5029 19.9503 15.4546 19.9141 15.3821 19.9261H12.615C12.4217 19.9261 12.2888 19.9141 12.2042 19.7932C11.9504 19.2857 11.6846 18.7903 11.4309 18.2828C11.1771 17.7753 10.8992 17.2799 10.6092 16.7603C10.3192 16.2407 10.0292 15.7211 9.73919 15.1895H9.71502C9.46127 15.7091 9.18335 16.2286 8.90544 16.7482C8.62752 17.2678 8.34961 17.7874 8.08377 18.2949C7.81794 18.8024 7.52794 19.322 7.25002 19.8174C7.20169 19.9382 7.10502 19.9503 6.9721 19.9503H4.31377C4.26544 19.9503 4.22919 19.9745 4.22919 19.9141C4.2238 19.8914 4.22316 19.8679 4.22732 19.8451C4.23148 19.8222 4.24034 19.8004 4.25335 19.7811L8.01127 13.6186L4.35002 7.4199C4.31377 7.37157 4.30169 7.32323 4.32585 7.29907C4.34059 7.28184 4.35928 7.26844 4.38032 7.26003C4.40137 7.25161 4.42414 7.24842 4.44669 7.25073H7.1896C7.24676 7.25198 7.30356 7.26009 7.35877 7.2749C7.40718 7.30095 7.44862 7.33824 7.4796 7.38365C7.70919 7.90323 7.97502 8.42282 8.25294 8.9424C8.53085 9.46198 8.82085 9.96948 9.12294 10.477C9.42502 10.9845 9.67877 11.492 9.93252 12.0116H9.95669C10.2104 11.4799 10.4763 10.9603 10.7421 10.4528C11.0079 9.94532 11.2859 9.43782 11.5638 8.93032C11.8417 8.42282 12.1075 7.90323 12.3734 7.40782C12.3825 7.36025 12.4082 7.31745 12.4459 7.28698C12.4937 7.26058 12.5494 7.25202 12.6029 7.26282H15.1525C15.1668 7.25961 15.1816 7.25926 15.196 7.26178C15.2104 7.26429 15.2242 7.26964 15.2366 7.2775C15.2489 7.28536 15.2596 7.29558 15.268 7.30757C15.2764 7.31957 15.2823 7.3331 15.2854 7.3474C15.2975 7.35948 15.2734 7.40782 15.2492 7.43198Z" fill="#FF61F6"/>
<path d="M20.8317 20.1806C19.936 20.1953 19.0484 20.0095 18.2338 19.6369C17.4759 19.2825 16.8407 18.7104 16.4092 17.9935C15.9621 17.2564 15.7446 16.3381 15.7446 15.2385C15.7324 14.3443 15.962 13.4634 16.4092 12.689C16.8677 11.9018 17.5319 11.2544 18.3304 10.816C19.1763 10.3448 20.1913 10.1152 21.3875 10.1152C21.4723 10.1142 21.557 10.1183 21.6413 10.1273C21.75 10.1394 21.8709 10.1394 22.0159 10.1515V6.33312C22.0159 6.24853 22.0521 6.2002 22.1367 6.2002H24.5896C24.6167 6.19654 24.6442 6.2032 24.6666 6.21888C24.6889 6.23455 24.7046 6.25808 24.7104 6.28478V17.8123C24.7104 18.0298 24.7225 18.2715 24.7346 18.5373C24.7467 18.8031 24.7709 19.0327 24.7829 19.2381C24.7855 19.2789 24.7752 19.3195 24.7536 19.3542C24.7319 19.3889 24.6999 19.4159 24.6621 19.4315C24.0292 19.6974 23.3686 19.892 22.6925 20.0115C22.0784 20.1222 21.4557 20.1788 20.8317 20.1806ZM22.0159 17.764V12.4473C21.9083 12.4213 21.7994 12.4012 21.6896 12.3869C21.5567 12.3748 21.4238 12.3627 21.2909 12.3627C20.8172 12.3574 20.3491 12.4651 19.9254 12.6769C19.5125 12.8826 19.159 13.1904 18.8984 13.571C18.6325 13.9577 18.4996 14.4773 18.4996 15.1056C18.4891 15.5297 18.5588 15.952 18.705 16.3502C18.8219 16.6722 19.0074 16.965 19.2488 17.2081C19.4817 17.4304 19.7629 17.5959 20.0704 17.6915C20.3941 17.7975 20.7328 17.8505 21.0734 17.8485C21.2546 17.8485 21.4238 17.8365 21.5809 17.8244C21.7285 17.8349 21.8767 17.8143 22.0159 17.764Z" fill="#FF61F6"/>
</g>
<defs>
<clipPath id="clip0_662_6279">
<rect width="29" height="28.275" fill="white"/>
</clipPath>
</defs>
</svg>
